<svg width="101" height="84" viewBox="0 0 101 84" fill="none" xmlns="http://www.w3.org/2000/svg">
<path d="M26 77.2896C26 80.9947 23.0877 84 19.5009 84C15.9114 84 13 80.9947 13 77.2896V34.7086C13 31.0035 15.9114 28 19.5009 28C23.0877 28 26 31.0035 26 34.7086V77.2896Z" fill="#2357A5"/>
<path d="M77.1716 28H33.8293C30.058 28 27 31.0025 27 34.7044C27 38.4107 30.058 41.4097 33.8293 41.4097H48.672V77.2956C48.672 80.9948 51.7274 84 55.4996 84C59.27 84 62.3307 80.9948 62.3307 77.2956V41.4097H77.1716C80.942 41.4097 84 38.4107 84 34.7044C84 31.0025 80.942 28 77.1716 28Z" fill="#2357A5"/>
<path d="M90.276 22.326C97.6938 34.6053 87.1062 54.8393 66.4619 68.9965V69C67.8791 68.2411 69.2909 67.437 70.6975 66.5816C94.0202 52.405 106.529 30.3179 98.6345 17.2478C90.7402 4.17506 65.4314 5.07022 42.107 19.2469C40.6969 20.104 39.33 20.9912 38 21.9023C60.0693 10.0953 82.8591 10.0484 90.276 22.326Z" fill="#F26721"/>
<path d="M35.848 10.8704C35.3018 9.08883 33.4306 8.09496 31.6713 8.64681C30.1598 9.12304 29.2247 10.5859 29.3366 12.1181L25.9726 13.1759C24.8758 10.5508 22.3093 8.70262 19.3138 8.70262C17.5075 8.70262 15.8592 9.3796 14.5919 10.4887L9.31408 5.15928C10.1151 3.85303 9.95793 2.11737 8.83718 0.986666C7.53172 -0.331285 5.4181 -0.328585 4.11618 0.992968C2.81693 2.31452 2.81782 4.45529 4.12418 5.77234C5.24493 6.90304 6.95802 7.05789 8.24573 6.24497L13.5591 11.6104C12.6399 12.8365 12.0902 14.3588 12.0902 16.018C12.0902 17.028 12.2891 17.9868 12.6568 18.8636L5.69696 23.2343C4.62683 22.1459 2.92084 21.9046 1.57718 22.7491C0.0132808 23.733 -0.47072 25.8162 0.50261 27.4024C1.47327 28.9877 3.53094 29.4757 5.09573 28.4917C6.44205 27.6464 6.98466 25.9908 6.49622 24.5387L13.3939 20.2032C14.6994 22.0919 16.8627 23.3306 19.3138 23.3306C23.303 23.3306 26.5365 20.0565 26.5365 16.018C26.5365 15.549 26.4877 15.0907 26.4051 14.6451L29.7851 13.5837C30.5533 14.908 32.1411 15.5769 33.6526 15.1006C35.4128 14.547 36.3968 12.6538 35.848 10.8704Z" fill="#2357A5"/>
</svg>
